# xmcd
#
# Track frame offsets: 
#        150
#        16919
#        33052
#        44870
#        56873
#        68209
#        82571
#        96966
#        114864
#        127093
#        145030
#        161301
#        175964
#        192359
#        211705
#
# Disc length: 3060 seconds
#
# Revision: 0
# Processed by: cddbd v1.5.1PL0 Copyright (c) Steve Scherf et al.
# Submitted via: ExactAudioCopy v0.95b2
#
DISCID=c30bf20f
DTITLE=Country Gitty - Cool is a Rule
DYEAR=2005
DGENRE=Country
TTITLE0=What am I gonna do with all this love
TTITLE1=Cool is a rule
TTITLE2=Down here in Texas
TTITLE3=I'm pure country
TTITLE4=Somebody someday
TTITLE5=If that's what it takes
TTITLE6=In the end
TTITLE7=Our path
TTITLE8=Hit and run
TTITLE9=Driven by the wind
TTITLE10=Saturday Night
TTITLE11=Linedance party
TTITLE12=Bye bye my friend
TTITLE13=So what am i doin
TTITLE14=That river of Jordan
EXTD=
EXTT0=
EXTT1=
EXTT2=
EXTT3=
EXTT4=
EXTT5=
EXTT6=
EXTT7=
EXTT8=
EXTT9=
EXTT10=
EXTT11=
EXTT12=
EXTT13=
EXTT14=
PLAYORDER=
